/vscmnt/brussel_pixiu_data/_data_brussel/112/vsc11236/PredSimResults/SUBJ09opt3D/weighted-LRposFixed/expIG/worker_03.mot
version=1
nRows=11
nColumns=50
inDegrees=yes
endheader
                time	         pelvis_tilt	         pelvis_list	     pelvis_rotation	           pelvis_tx	           pelvis_ty	           pelvis_tz	       hip_flexion_r	     hip_adduction_r	      hip_rotation_r	        knee_angle_r	       ankle_angle_r	         mtp_angle_r	       hip_flexion_l	     hip_adduction_l	      hip_rotation_l	        knee_angle_l	       ankle_angle_l	         mtp_angle_l	    lumbar_extension	      lumbar_bending	     lumbar_rotation	 ercspn_r/activation	 intobl_r/activation	 extobl_r/activation	    abd_r/activation	    add_r/activation	hamstrings_r/activation	bifemsh_r/activation	glut_max_r/activation	iliopsoas_r/activation	rect_fem_r/activation	  vasti_r/activation	gastroc_r/activation	 soleus_r/activation	tib_ant_r/activation	 ercspn_l/activation	 intobl_l/activation	 extobl_l/activation	    abd_l/activation	    add_l/activation	hamstrings_l/activation	bifemsh_l/activation	glut_max_l/activation	iliopsoas_l/activation	rect_fem_l/activation	  vasti_l/activation	gastroc_l/activation	 soleus_l/activation	tib_ant_l/activation	
          0.65719142	         -4.29869786	          0.91800234	         -7.45476231	          0.76234205	          0.99205003	          0.00161772	        -12.28076870	         -1.96444715	         -5.41690803	        -10.98227284	          4.71393022	         36.57767915	         28.44276888	         -0.89855505	         -7.51859399	         -4.34830469	          3.89289460	          0.22235704	        -13.50674251	          1.80410608	          8.25296270	          0.01000058	          0.01000014	          0.01000020	          0.04001089	          0.01000049	          0.01629740	          0.29489211	          0.01486343	          0.03427506	          0.01000143	          0.01000043	          0.33672247	          0.24985012	          0.01411004	          0.03593764	          0.17967081	          0.04126640	          0.01000045	          0.23860756	          0.06162933	          0.08667169	          0.01913881	          0.13834223	          0.01923365	          0.01119329	          0.01811351	          0.01156156	          0.31152965	
          0.67033525	         -4.37147540	          1.00168059	         -7.43566995	          0.78223398	          0.98976409	          0.00080520	        -12.86848390	         -2.26647628	         -5.88642760	        -11.78323093	          3.65861294	         38.26967850	         28.38215321	         -0.66506543	         -7.98478815	         -5.74804759	          3.38687336	          0.23993061	        -12.97196266	          1.35994402	          8.40040580	          0.03334119	          0.01000072	          0.01000032	          0.03282101	          0.01036296	          0.02941226	          0.24619742	          0.01219309	          0.08207616	          0.01000107	          0.01000055	          0.30852540	          0.22883439	          0.01157451	          0.02947993	          0.14738429	          0.03385093	          0.01000006	          0.29359312	          0.05055555	          0.07109729	          0.09470111	          0.11348238	          0.01577746	          0.01000255	          0.01485998	          0.01486129	          0.32867599	
          0.68347908	         -4.41712575	          1.12939557	         -7.39680307	          0.80271030	          0.98755668	         -0.00000071	        -13.32328646	         -2.64036450	         -6.36968445	        -12.91660256	          2.49791335	         39.95261103	         28.15046198	         -0.45798168	         -8.21200304	         -7.30425322	          2.94913842	          0.20759427	        -12.38717453	          0.85497752	          8.51279071	          0.02735047	          0.01000025	          0.01000064	          0.02692314	          0.01000169	          0.02827377	          0.20196067	          0.01000223	          0.08616708	          0.01000082	          0.01000043	          0.27400575	          0.20345032	          0.01000008	          0.02418286	          0.12089963	          0.02776801	          0.07942363	          0.24083554	          0.06238363	          0.05832155	          0.11763979	          0.09308980	          0.01294234	          0.01000131	          0.01219120	          0.01219094	          0.37225590	
          0.69662291	         -4.44279204	          1.27793417	         -7.32735530	          0.82337497	          0.98568463	         -0.00090435	        -13.54539522	         -3.07045576	         -6.86918709	        -14.49655914	          1.18816112	         41.55232668	         27.80645781	         -0.22945144	         -8.46033105	         -8.68785343	          2.31989069	          0.19575330	        -11.79852281	          0.32744451	          8.58317105	          0.02243738	          0.01000014	          0.01000026	          0.02208510	          0.01000059	          0.03684436	          0.16566952	          0.01000022	          0.12292135	          0.01000064	          0.01000029	          0.22476756	          0.16689100	          0.01000007	          0.02360034	          0.09917419	          0.02277819	          0.13125899	          0.22887298	          0.06236648	          0.04784151	          0.14611487	          0.07636173	          0.01061672	          0.01000209	          0.01000080	          0.01000036	          0.41847741	
          0.70976674	         -4.45168775	          1.43865431	         -7.22866140	          0.84380809	          0.98437408	         -0.00191836	        -13.43755752	         -3.55744411	         -7.38065294	        -16.64576203	         -0.23946426	         42.85426625	         27.50190996	          0.00830733	         -8.73458685	        -10.15339556	          1.75719216	          0.16143058	        -11.25460303	         -0.21353948	          8.61061184	          0.07681264	          0.01000052	          0.01000025	          0.01811646	          0.04478130	          0.04897977	          0.13589974	          0.01000028	          0.11467415	          0.01000038	          0.01000019	          0.18437723	          0.13690099	          0.01000009	          0.02764423	          0.08135277	          0.01868503	          0.18717574	          0.22888656	          0.06349458	          0.03924469	          0.15822900	          0.06263967	          0.01000032	          0.12043325	          0.01000077	          0.01000044	          0.44316498	
          0.72291057	         -4.44767046	          1.61278847	         -7.10915560	          0.86370810	          0.98386079	         -0.00302170	        -12.93508650	         -4.11063323	         -7.91844712	        -19.42107926	         -1.76186489	         43.55626076	         27.25689787	          0.25980683	         -8.97511221	        -11.75141074	          1.56893459	          0.11710751	        -10.78406935	         -0.76974491	          8.59951477	          0.09354258	          0.01000037	          0.01000028	          0.01486097	          0.13996266	          0.04981768	          0.11147957	          0.01000010	          0.10670184	          0.01000029	          0.01000009	          0.15124495	          0.11230013	          0.01000019	          0.03024255	          0.06673384	          0.01532741	          0.20666757	          0.23200381	          0.05938689	          0.03219268	          0.19421864	          0.05138344	          0.01000048	          0.21698317	          0.01000072	          0.01000035	          0.43923839	
          0.73605439	         -4.43420551	          1.77741380	         -6.96597126	          0.88291022	          0.98429703	         -0.00417372	        -12.01265931	         -4.71490562	         -8.51862145	        -22.85130713	         -3.26188599	         43.17508057	         27.01128726	          0.51241996	         -9.16568403	        -13.36922278	          1.83307586	          0.08658733	        -10.40326783	         -1.31726370	          8.54661863	          0.09996690	          0.01000045	          0.01000025	          0.01219050	          0.20260033	          0.05009512	          0.09144778	          0.01000009	          0.08752879	          0.01000029	          0.01000007	          0.12406649	          0.09211999	          0.01000011	          0.02691544	          0.05474190	          0.01257317	          0.20663403	          0.25043001	          0.06270048	          0.02640793	          0.19642434	          0.04214993	          0.01000044	          0.26696422	          0.01000079	          0.01000057	          0.38928546	
          0.74919822	         -4.41330017	          1.90331954	         -6.79601920	          0.90141707	          0.98565406	         -0.00533078	        -10.70665390	         -5.34824076	         -9.16580967	        -26.82443479	         -4.86846823	         41.71528731	         26.67505020	          0.75045264	         -9.29303263	        -14.82890430	          2.45456517	          0.09807557	        -10.11025602	         -1.82497446	          8.44935610	          0.08584299	          0.01000030	          0.01000034	          0.01000006	          0.26572313	          0.04896441	          0.07501624	          0.01000008	          0.07180046	          0.01000023	          0.01000004	          0.10177196	          0.07556619	          0.02480001	          0.02207923	          0.04490490	          0.01031393	          0.19939471	          0.26021111	          0.06386952	          0.02166272	          0.19555166	          0.03457567	          0.01000044	          0.29647645	          0.01000160	          0.01000194	          0.32824008	
          0.76234205	         -4.38548633	          1.96739959	         -6.59623906	          0.91927477	          0.98778194	         -0.00644720	         -9.08595713	         -5.98456118	         -9.80713202	        -31.19009352	         -6.52252760	         39.01827643	         26.16840187	          0.96342951	         -9.33448522	        -15.95137707	          3.16954562	          0.20538197	         -9.89888560	         -2.26935505	          8.30194415	          0.08480827	          0.03850004	          0.01000057	          0.01000008	          0.22398434	          0.04016595	          0.06153665	          0.01000016	          0.05889832	          0.01000028	          0.01000005	          0.08348372	          0.06198708	          0.08153565	          0.01811183	          0.03683559	          0.01000047	          0.20380871	          0.21918241	          0.06521645	          0.01777028	          0.16801598	          0.02836250	          0.01000033	          0.28589570	          0.01000074	          0.01000036	          0.27456802	
          0.77548588	         -4.34986181	          1.96431299	         -6.37156263	          0.93651265	          0.99043396	         -0.00749665	         -7.23375981	         -6.59964291	        -10.34329556	        -35.80867274	         -7.90662550	         34.85041983	         25.48416005	          1.14360835	         -9.28787709	        -16.70861737	          3.84110543	          0.40667912	         -9.76462690	         -2.64110118	          8.09745153	          0.11166993	          0.06975480	          0.04415743	          0.01000043	          0.18373493	          0.03294831	          0.05047948	          0.01000035	          0.04831473	          0.01000071	          0.01000007	          0.06848184	          0.05084811	          0.19109129	          0.01485736	          0.03021632	          0.01000038	          0.18337802	          0.18793550	          0.06799831	          0.01457737	          0.14717849	          0.02326582	          0.01000035	          0.28208082	          0.01000059	          0.01000035	          0.23064489	
          0.78862971	         -4.30521944	          1.90695710	         -6.11843041	          0.95312867	          0.99337583	         -0.00844547	         -5.24715413	         -7.12078566	        -10.65708771	        -40.46052745	         -8.59849103	         29.67169799	         24.65789751	          1.29349343	         -9.17270090	        -17.16357134	          4.46674941	          0.72670696	         -9.70711283	         -2.95070600	          7.82390230	          0.11786766	          0.07570814	          0.08507738	          0.01000066	          0.15071831	          0.02702763	          0.05002299	          0.01000027	          0.03963357	          0.01000068	          0.01000005	          0.05617581	          0.04171080	          0.21353166	          0.01218779	          0.02478653	          0.01000032	          0.15633223	          0.17889333	          0.06098332	          0.01195844	          0.12076675	          0.01908501	          0.01000042	          0.26154396	          0.01000065	          0.01000045	          0.19349068	
